# xmcd
#
# Track frame offsets:
#	150
#	18038
#	34545
#	55878
#	70957
#	90364
#	104914
#	125507
#	142524
#	159085
#	175719
#	190950
#	207296
#	223588
#	237589
#	251732
#	272320
#	293008
#	310292
#
# Disc length: 4343 seconds
#
# Revision: 1
# Processed by: cddbd v1.5.2PL0 Copyright (c) Steve Scherf et al.
# Submitted via: audiograbber 1.83.01
#
DISCID=0410f513
DTITLE=DMC - Essential Hits 55
DYEAR=2009
DGENRE=Pop
TTITLE0=Leona Lewis - Happy
TTITLE1=Cheryl Cole - Fight For This Love
TTITLE2=Black Eyed Peas - Meet Me Halfway
TTITLE3=The Saturdays - Forever Is Over
TTITLE4=Dizzee Rascal - Dirtee Cash
TTITLE5=JLS - Everybody In Love
TTITLE6=Jay-Z Ft Alicia Keys - Empire State Of Mind (Explicit)
TTITLE7=Tinchy Stryder - You're Not Alone
TTITLE8=Sean Paul - Press It Up
TTITLE9=Calvin Harris - Flashback
TTITLE10=Tiesto and Sneaky Sound System - I Will Be Here
TTITLE11=Miike Snow - Black And Blue
TTITLE12=Daniel Merriweather - Water And A Flame (Radio Edit)
TTITLE13=Medina - You And I
TTITLE14=Deadmau5 Ft Rob Swire - Ghosts N Stuff
TTITLE15=Green Day - East Jesus Nowhere
TTITLE16=Kasabian - Underdog
TTITLE17=Temper Trap - Sweet Disposition
TTITLE18=Veronicas - 4Ever
EXTD=
EXTT0=
EXTT1=
EXTT2=
EXTT3=
EXTT4=
EXTT5=
EXTT6=
EXTT7=
EXTT8=
EXTT9=
EXTT10=
EXTT11=
EXTT12=
EXTT13=
EXTT14=
EXTT15=
EXTT16=
EXTT17=
EXTT18=
PLAYORDER=
